<svg width="17" height="12" viewBox="0 0 17 12" fill="none" xmlns="http://www.w3.org/2000/svg">
<path d="M15.875 4.79908H2.63882L4.83145 1.60401C5.07611 1.24746 5.07704 0.668015 4.83354 0.309769C4.59004 -0.0485228 4.19429 -0.0498495 3.94964 0.306658L0.683887 5.06558C0.683668 5.06586 0.683512 5.06617 0.683324 5.06645C0.439293 5.423 0.438512 6.00432 0.683262 6.36207C0.683481 6.36234 0.683637 6.36266 0.683824 6.36294L3.94957 11.1219C4.1942 11.4783 4.58995 11.4771 4.83348 11.1187C5.07698 10.7605 5.07604 10.1811 4.83139 9.8245L2.63882 6.62944H15.875C16.2202 6.62944 16.5 6.21971 16.5 5.71426C16.5 5.20881 16.2202 4.79908 15.875 4.79908Z" fill="white"/>
</svg>
