<svg width="40" height="40" viewBox="0 0 40 40" fill="none" xmlns="http://www.w3.org/2000/svg">
<g opacity="0.7">
<path d="M36.6668 21.6667C36.2247 21.6667 35.8008 21.8423 35.4882 22.1548C35.1757 22.4674 35.0001 22.8913 35.0001 23.3333V30.355C34.9988 31.5865 34.509 32.7672 33.6381 33.638C32.7673 34.5089 31.5866 34.9987 30.3551 35H9.64508C8.41356 34.9987 7.23285 34.5089 6.36203 33.638C5.49121 32.7672 5.00141 31.5865 5.00008 30.355V23.3333C5.00008 22.8913 4.82449 22.4674 4.51193 22.1548C4.19937 21.8423 3.77544 21.6667 3.33341 21.6667C2.89139 21.6667 2.46746 21.8423 2.1549 22.1548C1.84234 22.4674 1.66675 22.8913 1.66675 23.3333V30.355C1.66895 32.4703 2.51023 34.4983 4.00598 35.9941C5.50173 37.4898 7.52977 38.3311 9.64508 38.3333H30.3551C32.4704 38.3311 34.4984 37.4898 35.9942 35.9941C37.4899 34.4983 38.3312 32.4703 38.3334 30.355V23.3333C38.3334 22.8913 38.1578 22.4674 37.8453 22.1548C37.5327 21.8423 37.1088 21.6667 36.6668 21.6667Z" fill="black"/>
<path d="M11.1785 14.5117L18.3335 7.35667V28.3333C18.3335 28.7754 18.5091 29.1993 18.8217 29.5118C19.1342 29.8244 19.5582 30 20.0002 30C20.4422 30 20.8661 29.8244 21.1787 29.5118C21.4913 29.1993 21.6669 28.7754 21.6669 28.3333V7.35667L28.8219 14.5117C29.1362 14.8153 29.5572 14.9833 29.9942 14.9795C30.4312 14.9757 30.8492 14.8004 31.1582 14.4914C31.4672 14.1824 31.6425 13.7643 31.6463 13.3273C31.6501 12.8903 31.4821 12.4693 31.1785 12.155L21.1785 2.155C20.866 1.84255 20.4421 1.66702 20.0002 1.66702C19.5582 1.66702 19.1344 1.84255 18.8219 2.155L8.82186 12.155C8.51826 12.4693 8.35027 12.8903 8.35407 13.3273C8.35786 13.7643 8.53315 14.1824 8.84216 14.4914C9.15117 14.8004 9.56919 14.9757 10.0062 14.9795C10.4432 14.9833 10.8642 14.8153 11.1785 14.5117Z" fill="black"/>
</g>
</svg>
